<?xml version="1.0" standalone="no"?>
<!DOCTYPE svg PUBLIC "-//W3C//DTD SVG 20010904//EN"
 "http://www.w3.org/TR/2001/REC-SVG-20010904/DTD/svg10.dtd">
<svg version="1.0" xmlns="http://www.w3.org/2000/svg"
 width="512.000000pt" height="512.000000pt" viewBox="0 0 512.000000 512.000000"
 preserveAspectRatio="xMidYMid meet">
<metadata>
Created by potrace 1.11, written by Peter Selinger 2001-2013
</metadata>
<g transform="translate(0.000000,512.000000) scale(0.100000,-0.100000)"
fill="#000000" stroke="none">
<path d="M2437 5104 c-1 -1 -41 -4 -88 -8 -47 -4 -95 -8 -105 -10 -10 -2 -41
-7 -67 -10 -42 -6 -80 -13 -174 -32 -56 -11 -269 -77 -353 -109 -203 -77 -502
-247 -643 -365 -152 -126 -311 -279 -369 -355 -12 -16 -28 -34 -35 -40 -7 -5
-23 -24 -35 -42 -13 -18 -43 -61 -68 -95 -245 -339 -399 -740 -454 -1183 -13
-102 -15 -479 -3 -560 2 -16 8 -55 12 -85 14 -109 56 -292 96 -417 126 -393
327 -722 618 -1013 289 -289 569 -467 951 -606 97 -36 326 -96 415 -110 28 -4
57 -9 65 -10 8 -2 44 -6 80 -10 36 -3 74 -8 85 -10 30 -6 341 -5 415 1 495 43
956 224 1350 528 131 101 314 283 423 419 308 387 501 865 544 1348 10 106 9
390 0 490 -31 308 -120 610 -269 905 -28 55 -59 112 -69 127 -11 14 -19 29
-19 32 0 6 -50 86 -60 96 -3 3 -20 28 -39 55 -178 258 -467 528 -750 700 -284
172 -624 298 -926 341 -22 3 -52 7 -66 10 -77 12 -451 27 -462 18z"/>
</g>
</svg>
