<?xml version="1.0" standalone="no"?>
<!DOCTYPE svg PUBLIC "-//W3C//DTD SVG 20010904//EN"
 "http://www.w3.org/TR/2001/REC-SVG-20010904/DTD/svg10.dtd">
<svg version="1.0" xmlns="http://www.w3.org/2000/svg"
 width="1024.000000pt" height="1024.000000pt" viewBox="0 0 1024.000000 1024.000000"
 preserveAspectRatio="xMidYMid meet">
<metadata>
Created by potrace 1.11, written by Peter Selinger 2001-2013
</metadata>
<g transform="translate(0.000000,1024.000000) scale(0.100000,-0.100000)"
fill="#000000" stroke="none">
<path d="M4947 10234 c-1 -1 -58 -5 -127 -8 -69 -4 -136 -8 -150 -10 -14 -3
-57 -7 -95 -10 -39 -4 -80 -8 -90 -10 -11 -2 -42 -7 -70 -10 -27 -4 -63 -9
-80 -12 -16 -3 -42 -7 -57 -9 -64 -11 -89 -15 -164 -30 -43 -9 -90 -18 -104
-21 -14 -3 -43 -10 -65 -16 -22 -5 -48 -12 -58 -14 -10 -2 -27 -6 -37 -9 -10
-3 -28 -8 -40 -10 -11 -2 -35 -9 -53 -14 -18 -6 -99 -32 -181 -57 -511 -160
-931 -371 -1437 -721 -201 -140 -480 -382 -693 -602 -108 -112 -115 -120 -202
-221 -579 -677 -965 -1470 -1138 -2340 -19 -96 -38 -199 -41 -229 -4 -30 -8
-61 -10 -70 -1 -9 -6 -43 -9 -76 -4 -33 -9 -73 -11 -90 -2 -16 -6 -70 -10
-120 -3 -49 -8 -112 -10 -140 -6 -70 -6 -479 -1 -540 3 -27 8 -90 11 -140 7
-95 12 -151 19 -200 2 -16 7 -55 11 -85 6 -49 45 -279 60 -353 107 -529 332
-1106 613 -1573 69 -115 237 -371 252 -384 3 -3 38 -49 78 -103 158 -212 421
-498 637 -693 688 -619 1501 -1031 2406 -1219 68 -14 142 -28 164 -31 22 -3
81 -11 130 -19 234 -36 310 -40 740 -40 341 0 507 6 580 20 11 2 44 7 74 10
30 3 64 8 75 10 12 2 44 7 71 10 198 24 549 110 825 203 333 111 741 297 970
442 8 5 39 23 68 40 83 48 295 193 416 285 627 472 1134 1080 1491 1785 75
149 196 421 211 475 1 6 15 42 29 80 78 207 170 538 209 750 26 142 46 258 51
300 3 28 8 61 10 75 15 91 20 238 20 625 0 398 -3 491 -21 620 -2 22 -6 51 -8
65 -19 138 -32 216 -57 340 -27 130 -41 187 -92 381 -62 235 -213 622 -348
890 -236 472 -531 883 -936 1304 -210 219 -538 487 -813 667 -233 152 -336
212 -546 317 -465 232 -982 398 -1469 472 -142 21 -192 28 -260 34 -38 3 -81
8 -95 10 -72 12 -633 28 -643 19z"/>
</g>
</svg>
