<svg xmlns="http://www.w3.org/2000/svg" width="256" height="256" viewBox="0 0 100 100"><rect width="100" height="100" rx="20" fill="#0083ff"></rect><path fill="#fff" d="M40.48 77.92L28.32 77.92L28.32 22.08L54.72 22.08Q58.64 22.08 61.76 23.40Q64.88 24.72 67.08 27.04Q69.28 29.36 70.48 32.68Q71.68 36 71.68 39.92L71.68 39.92Q71.68 43.92 70.48 47.20Q69.28 50.48 67.08 52.80Q64.88 55.12 61.76 56.44Q58.64 57.76 54.72 57.76L54.72 57.76L40.48 57.76L40.48 77.92ZM40.48 32.64L40.48 47.20L53.28 47.20Q56 47.20 57.56 45.80Q59.12 44.40 59.12 41.68L59.12 41.68L59.12 38.16Q59.12 35.44 57.56 34.04Q56 32.64 53.28 32.64L53.28 32.64L40.48 32.64Z"></path></svg>